<?xml version="1.0" encoding="utf-8"?>
<!-- Generated by IcoMoon.io -->
<!DOCTYPE svg PUBLIC "-//W3C//DTD SVG 1.1//EN" "http://www.w3.org/Graphics/SVG/1.1/DTD/svg11.dtd">
<svg version="1.1" xmlns="http://www.w3.org/2000/svg" xmlns:xlink="http://www.w3.org/1999/xlink" width="16" height="16" viewBox="0 0 16 16">
	<path d="M8 0c-3.372 0-7 1.016-7 3.25v9.5c0 2.232 3.628 3.25 7 3.25 3.372 0 7-1.018 7-3.25v-9.5c0-2.233-3.629-3.25-7-3.25zM14 12.75c0 1.242-2.687 2.25-6 2.25-3.314 0-6-1.008-6-2.25v-1.868c1.033 1.065 3.525 1.618 6 1.618s4.967-0.553 6-1.618v1.868zM14 9.75h-0.002c0 0.005 0.002 0.011 0.002 0.015 0 1.235-2.687 2.235-6 2.235-3.313 0-6-1-6-2.235 0-0.005 0.002-0.011 0.002-0.015h-0.002v-1.868c1.033 1.065 3.525 1.618 6 1.618s4.967-0.553 6-1.618v1.868zM14 6.75h-0.002c0 0.005 0.002 0.011 0.002 0.016 0 1.234-2.687 2.234-6 2.234-3.313 0-6-1-6-2.235 0-0.005 0.002-0.011 0.002-0.016h-0.002v-1.718c1.31 0.998 3.712 1.468 6 1.468s4.689-0.47 6-1.468v1.718zM8 5.5c-3.314 0-6-1.008-6-2.25 0-1.243 2.686-2.25 6-2.25 3.313 0 6 1.007 6 2.25 0 1.242-2.687 2.25-6 2.25zM12 13c0-0.276 0.224-0.5 0.5-0.5s0.5 0.224 0.5 0.5c0 0.276-0.224 0.5-0.5 0.5-0.276 0-0.5-0.224-0.5-0.5zM12 10c0-0.276 0.224-0.5 0.5-0.5s0.5 0.224 0.5 0.5c0 0.276-0.224 0.5-0.5 0.5-0.276 0-0.5-0.224-0.5-0.5zM12 7c0-0.276 0.224-0.5 0.5-0.5s0.5 0.224 0.5 0.5c0 0.276-0.224 0.5-0.5 0.5-0.276 0-0.5-0.224-0.5-0.5z" />
</svg>
